<svg width="16" height="16" viewBox="0 0 16 16" fill="none" xmlns="http://www.w3.org/2000/svg">
<path d="M12.1654 3.33333C12.1654 3.11232 12.0775 2.90042 11.9212 2.74414C11.7649 2.58786 11.553 2.5 11.332 2.5H4.66536C4.44435 2.5 4.23245 2.58786 4.07617 2.74414C3.91989 2.90042 3.83203 3.11232 3.83203 3.33333V13.138L7.75065 10.8991L7.8099 10.8704C7.95105 10.8128 8.11228 10.8223 8.24674 10.8991L12.1654 13.138V3.33333ZM13.1654 14C13.1654 14.1782 13.0702 14.3428 12.916 14.4323C12.7619 14.5216 12.572 14.5226 12.4173 14.4342L7.9987 11.9089L3.58008 14.4342C3.42539 14.5226 3.23549 14.5216 3.08138 14.4323C2.92722 14.3428 2.83203 14.1782 2.83203 14V3.33333C2.83203 2.8471 3.02532 2.38093 3.36914 2.03711C3.71296 1.69329 4.17913 1.5 4.66536 1.5H11.332C11.8183 1.5 12.2844 1.69329 12.6283 2.03711C12.9721 2.38093 13.1654 2.8471 13.1654 3.33333V14Z" fill="#404040"/>
</svg>
