<svg preserveAspectRatio="none" overflow="visible" style="display: block;" width="30" height="30" viewBox="0 0 30 30" fill="none" xmlns="http://www.w3.org/2000/svg">
<g id="Bookmark Icon">
<path id="Vector" d="M22.8125 6.25C22.8125 5.8356 22.6478 5.43829 22.3547 5.14526C22.0617 4.85224 21.6644 4.6875 21.25 4.6875H8.75C8.3356 4.6875 7.93829 4.85224 7.64526 5.14526C7.35224 5.43829 7.1875 5.8356 7.1875 6.25V24.6338L14.5349 20.4358L14.646 20.3821C14.9107 20.2741 15.213 20.2918 15.4651 20.4358L22.8125 24.6338V6.25ZM24.6875 26.25C24.6875 26.5842 24.509 26.8928 24.22 27.0605C23.931 27.2281 23.5749 27.2299 23.2849 27.0642L15 22.3291L6.71509 27.0642C6.42505 27.2299 6.06898 27.2281 5.78003 27.0605C5.49098 26.8928 5.3125 26.5842 5.3125 26.25V6.25C5.3125 5.33832 5.67492 4.46424 6.31958 3.81958C6.96424 3.17492 7.83832 2.8125 8.75 2.8125H21.25C22.1617 2.8125 23.0358 3.17492 23.6804 3.81958C24.3251 4.46424 24.6875 5.33832 24.6875 6.25V26.25Z" fill="#525252"/>
</g>
</svg>
