<svg width="70" height="70" viewBox="0 0 70 70" fill="none" xmlns="http://www.w3.org/2000/svg">
<g clip-path="url(#clip0_9943_56012)">
<path d="M0 8C0 3.58172 3.58172 0 8 0H62C66.4183 0 70 3.58172 70 8V62C70 66.4183 66.4183 70 62 70H8C3.58172 70 0 66.4183 0 62V8Z" fill="#F5F5F5"/>
<g clip-path="url(#clip1_9943_56012)">
<path fill-rule="evenodd" clip-rule="evenodd" d="M32.8839 11.6663C32.7485 11.6686 32.5745 11.7291 32.5728 11.9611C32.5711 12.1931 32.8113 12.6872 32.798 13.8211C32.7842 14.9992 32.5143 15.8004 30.8694 17.8159L24.3493 25.8052C20.5764 30.4283 18.0118 32.5364 18 37.5795C17.9882 42.6226 20.5784 45.0869 24.352 48.1245C28.1256 51.162 33.0142 55.1055 36.8172 58.1945C36.9035 58.2646 37.011 58.3391 37.1464 58.3368C37.2819 58.3346 37.4559 58.274 37.4576 58.0421C37.4592 57.8101 37.1997 57.5822 37.213 56.4484C37.2268 55.2703 37.3413 54.5618 38.9963 52.5546L45.8425 44.2517C49.6387 39.6478 51.9882 37.589 52 32.6062C52.0117 27.6235 49.3998 24.9026 46.056 22.309C41.6574 18.8973 36.5447 14.5956 33.2132 11.8087C33.1279 11.7373 33.0193 11.6641 32.8839 11.6663Z" fill="url(#paint0_radial_9943_56012)"/>
<path fill-rule="evenodd" clip-rule="evenodd" d="M27.2402 28.7467V30.7995H33.0397V44.1896C33.0397 46.0696 34.3793 46.9271 35.6914 46.9271C37.0035 46.9271 37.8357 46.4901 37.8357 46.4901C37.8357 46.4901 37.0356 45.8423 37.0321 42.9631C37.0287 40.1707 37.0318 31.3655 37.0321 30.1235C37.0324 28.8816 35.5846 26.6454 33.2024 26.6454L29.5206 26.6454C28.3139 26.6454 27.2402 27.6282 27.2402 28.7467ZM35.7575 26.6454C35.6815 26.6454 35.6203 26.7066 35.6203 26.7826C35.6203 26.8587 35.6966 26.9151 35.7575 26.9606C36.0101 27.1491 36.7973 27.7072 37.1732 28.4708C37.5492 29.2343 37.5581 29.9272 37.8024 30.3275C38.0466 30.7278 38.4452 30.7995 38.8668 30.7995H41.8978C42.5676 30.7995 42.8308 30.3494 42.8308 29.8155V26.6454H35.7575Z" fill="white"/>
</g>
</g>
<defs>
<radialGradient id="paint0_radial_9943_56012" cx="0" cy="0" r="1" gradientUnits="userSpaceOnUse" gradientTransform="translate(22.9936 47.1298) rotate(-28.191) scale(30.7062 26.1512)">
<stop stop-color="#FFCC00"/>
<stop offset="0.604356" stop-color="#FF0015"/>
<stop offset="1" stop-color="#C6000F"/>
</radialGradient>
<clipPath id="clip0_9943_56012">
<rect width="70" height="70" fill="white"/>
</clipPath>
<clipPath id="clip1_9943_56012">
<rect width="34" height="46.6706" fill="white" transform="translate(18 11.6648)"/>
</clipPath>
</defs>
</svg>
